<svg xmlns="http://www.w3.org/2000/svg" width="34" height="28" viewBox="0 0 34 28">
    <g fill="#00a99d" fill-rule="nonzero">
        <path d="M16.93 28c-8.38 0-15.197-4.47-15.197-9.963 0-.38.032-.755.096-1.124A3.772 3.772 0 0 1 0 13.692c.002-2.089 1.724-3.78 3.85-3.784.948 0 1.852.341 2.551.95 2.636-1.662 6.181-2.708 10.092-2.78l2.568-7.7.56.13.014.003 5.984 1.384A3.178 3.178 0 0 1 28.536 0c1.75.002 3.168 1.396 3.17 3.115-.002 1.72-1.42 3.113-3.17 3.115-1.748-.002-3.166-1.393-3.17-3.11l-5.46-1.264-2.08 6.235c3.77.145 7.173 1.194 9.714 2.82a3.867 3.867 0 0 1 2.61-1.002c2.125.002 3.848 1.695 3.85 3.783a3.746 3.746 0 0 1-1.957 3.296c.056.345.084.695.084 1.05C32.126 23.53 25.31 28 16.93 28zM3.13 16.856a5.555 5.555 0 0 0-.127 1.181c0 4.806 6.247 8.715 13.926 8.715s13.926-3.91 13.926-8.715c0-.382-.04-.758-.116-1.128a.617.617 0 0 1-.063-.271c-.425-1.64-1.585-3.129-3.259-4.328a.63.63 0 0 1-.273-.19C24.6 10.4 20.962 9.322 16.93 9.322c-3.992 0-7.598 1.057-10.14 2.747a.65.65 0 0 1-.254.175c-1.711 1.2-2.9 2.699-3.342 4.353a.61.61 0 0 1-.053.24l-.01.02zm25.472-5.192c1.473 1.158 2.554 2.536 3.107 4.05a2.503 2.503 0 0 0 1.02-2.022c-.002-1.4-1.156-2.534-2.58-2.535-.558-.001-1.101.177-1.547.507zM3.85 11.157c-1.424.002-2.578 1.136-2.58 2.535 0 .757.344 1.46.913 1.935.57-1.502 1.663-2.87 3.142-4.016a2.615 2.615 0 0 0-1.475-.454zm24.686-9.91c-1.047 0-1.9.838-1.9 1.868 0 1.029.853 1.866 1.9 1.866s1.899-.837 1.899-1.866c0-1.03-.852-1.867-1.9-1.867zm-11.538 23.2c-2.544 0-4.336-.546-5.48-1.67a.617.617 0 0 1 .001-.883.643.643 0 0 1 .899 0c.892.878 2.39 1.305 4.58 1.305s3.69-.427 4.583-1.304a.643.643 0 0 1 .613-.161.63.63 0 0 1 .45.44.616.616 0 0 1-.165.603c-1.144 1.124-2.936 1.67-5.48 1.67z"/>
        <path d="M22.655 14c-1.296 0-2.384 1.148-2.384 2.52 0 1.37 1.088 2.48 2.384 2.48C23.951 19 25 17.89 25 16.52c0-1.372-1.05-2.52-2.345-2.52zm-10.274 0C11.087 14 10 15.15 10 16.52c0 1.369 1.086 2.48 2.381 2.48 1.295 0 2.345-1.111 2.345-2.48 0-1.37-1.05-2.52-2.345-2.52z"/>
    </g>
</svg>
